<?xml version="1.0" encoding="utf-8"?>
<!-- Generator: Adobe Illustrator 23.1.1, SVG Export Plug-In . SVG Version: 6.00 Build 0)  -->
<svg version="1.1" id="Layer_1" xmlns="http://www.w3.org/2000/svg" xmlns:xlink="http://www.w3.org/1999/xlink" x="0px" y="0px"
	 viewBox="0 0 345 114" style="enable-background:new 0 0 345 114;" xml:space="preserve">
<style type="text/css">
	.st0{fill:#6F39F8;}
	.st1{fill:#FFFFFF;}
</style>
<g>
	<g>
		<g>
			<circle class="st0" cx="50.8" cy="57" r="32.1"/>
			<path class="st1" d="M71.4,59.7c0,0.8-0.1,1.7-0.4,2.5v0l-0.2,0.6v0l0,0c-0.4,1-1,2-1.6,2.9l0,0c-3.4,5-7.9,6.2-10.4,6.5l0,0
				c-0.5,0-0.9,0.1-1.2,0.1h0h0h-0.2h-0.2h0h-0.1h-0.1h0c-0.4,0-0.7-0.1-1-0.2c-0.3-0.1-0.6-0.2-0.9-0.4l0,0
				c-0.3-0.2-0.6-0.5-0.8-0.8c-0.5-0.9-0.9-1.8-1-2.7C53,67.8,53,67.4,52.9,67c0,0,0,0,0-0.1l0,0v0l0,0l0,0
				c-0.1,0.2-0.2,0.4-0.4,0.6c-0.1,0.2-0.2,0.3-0.3,0.5l0,0c-0.1,0.2-0.2,0.3-0.4,0.5l0,0c-0.1,0.1-0.1,0.2-0.2,0.2
				c-0.2,0.2-0.4,0.5-0.7,0.7c-0.1,0.1-0.2,0.2-0.2,0.2c-0.1,0.1-0.2,0.2-0.2,0.2c-0.2,0.2-0.3,0.3-0.5,0.4
				c-0.2,0.2-0.4,0.3-0.5,0.4c-1.4,1.1-3.2,1.7-5,1.6h-0.2c-3.2,0-5.7-0.7-7.4-1.9c-1.8-1.3-2.7-3.1-2.7-5.6c0-0.7,0-1.3,0.2-2l0,0
				c0-0.1,0-0.3,0.1-0.4c2.5-6.7,3.1-13.8,3.3-18.3l0,0l0.1-0.4c0.1-0.6,0.4-1,0.9-1.3c1.2-0.7,2.8-1,4.8-1c1.9,0,3,1.3,3.3,3.8
				c0.2,2,0.1,3.9-0.3,5.5c-0.4,1.6-0.9,3.6-1.6,6.1c-0.7,2.5-1,4.6-1,6.5c0,1.4,0.8,2.2,2.5,2.2c0.1,0,0.2,0,0.3,0
				c2,0,3.8-1.8,5.4-5.4c1.2-2.8,2-5.8,2.4-9.2c0,0,0-0.1,0-0.1l0,0c0-0.3-0.1-0.7-0.1-1.1c0-0.5,0-1-0.1-1.6c0-0.5,0-1,0-1.5v-1.1
				c0-2.8,2.2-4.2,6.5-4.2c1.1,0,1.8,0.4,2,1.1c0.3,0.7,0.4,1.8,0.4,3.3c0,2-0.4,5.2-1.4,9.6c-0.4,1.7-0.7,3.1-0.9,4.4l0,0
				c0,0.2,0,0.4-0.1,0.5l0,0c-0.3,1.7-0.4,2.9-0.4,3.8c0,0.7,0.2,1.1,0.7,1.1c0.6,0,1.4-0.4,2.3-1.2c0,0,0.1-0.1,0.1-0.1l0.2-0.1
				c0.8-0.7,1.7-1.5,2.5-2.4c0.9-0.9,1.8-1.8,2.5-2.6c0.8-0.8,1.3-1.2,1.6-1.2C71.2,57.6,71.4,58.3,71.4,59.7z"/>
		</g>
	</g>
	<g>
		<path d="M93.1,59.2c0-9.1,6.3-16.5,14.9-16.5c5.1,0,9.7,2.5,12.3,6.5l0.2-5.6h4.8v31.3h-4.8l-0.2-5.6c-2.6,4-7.2,6.5-12.3,6.5
			C99.4,75.8,93.1,68.4,93.1,59.2z M120.2,59.2c0-7.5-4.9-12.1-10.8-12.1s-10.8,4.6-10.8,12.1c0,7.5,4.9,12.1,10.8,12.1
			S120.2,66.8,120.2,59.2z"/>
		<path d="M132.5,59.2c0-9.1,6.3-16.5,14.9-16.5c4.9,0,9.2,2.2,11.8,5.8V31.5h5.5v43.4H160l-0.2-5.6c-2.6,4-7.2,6.5-12.3,6.5
			C138.8,75.8,132.5,68.4,132.5,59.2z M159.6,59.2c0-7.5-4.9-12.1-10.8-12.1S138,51.7,138,59.2c0,7.5,4.9,12.1,10.8,12.1
			S159.6,66.8,159.6,59.2z"/>
		<path d="M171.9,59.2c0-9.1,6.3-16.5,14.9-16.5c5.1,0,9.7,2.5,12.3,6.5l0.2-5.6h4.8v31.3h-4.8l-0.2-5.6c-2.6,4-7.2,6.5-12.3,6.5
			C178.2,75.8,171.9,68.4,171.9,59.2z M199,59.2c0-7.5-4.9-12.1-10.8-12.1s-10.8,4.6-10.8,12.1c0,7.5,4.9,12.1,10.8,12.1
			S199,66.8,199,59.2z"/>
		<path d="M213.1,43.6h4.8l0.2,5.6c2.6-4,7.2-6.5,12.3-6.5c8.6,0,14.9,7.4,14.9,16.5c0,9.1-6.3,16.5-14.9,16.5
			c-4.9,0-9.2-2.2-11.8-5.8v19h-5.5V43.6z M239.9,59.2c0-7.5-4.9-12.1-10.8-12.1c-5.9,0-10.8,4.6-10.8,12.1
			c0,7.5,4.9,12.1,10.8,12.1C235,71.3,239.9,66.8,239.9,59.2z"/>
		<path d="M256.3,47.4h-7v-3.8h7v-8.5h5.5v8.5h7.1v3.8h-7.1v27.5h-5.5V47.4z"/>
		<path d="M272.9,59c0-10.1,7.5-16.3,15.1-16.3c7.8,0,13.3,5.1,13.3,12.2c0,1.1-0.2,2.5-0.4,3.5h-22.6c-0.4,5.5,2.2,12.8,12.2,12.8
			c3.5,0,7.9-1.7,10.3-4.1v4.9c-3,2.4-7.6,3.7-12.2,3.7C279.4,75.8,272.9,68.7,272.9,59z M296.1,54.6c0.6-4.2-2.7-7.5-7.8-7.5
			c-4.4,0-8.5,2.4-9.4,7.5H296.1z"/>
		<path d="M309,43.6h4.8l0.4,6c2-3.8,6.9-6.9,12.2-6.9v5.9c-5.9-1.1-11.8,2.3-11.8,7.6v18.6H309V43.6z"/>
	</g>
</g>
</svg>
