<svg xmlns="http://www.w3.org/2000/svg" viewBox="0 0 1920 1080"><defs><style>.cls-1,.cls-4{fill:#8451ff;}.cls-1{opacity:0.1;}.cls-2,.cls-3{fill:none;stroke:#e6e6e6;stroke-miterlimit:10;}.cls-2{stroke-width:0.75px;}.cls-4{opacity:0.17;}</style></defs><title>adapter</title><g id="Livello_2" data-name="Livello 2"><rect class="cls-1" x="1675" y="175" width="20" height="20"/><line class="cls-2" x1="1" y1="184.82" x2="1920" y2="184.82"/><line class="cls-3" x1="1685.5" y1="-1" x2="1685.5" y2="1352"/><line class="cls-3" x1="172.18" y1="866.05" x2="1011.98" y2="866.05"/><path class="cls-3" d="M172.83,801.25V932.14"/><path class="cls-3" d="M1012.63,801.25V932.14"/><polyline class="cls-3" points="98.65 866.58 172.17 866.58 159.75 854.15"/><line class="cls-3" x1="98.65" y1="876.98" x2="98.65" y2="856.17"/><line class="cls-3" x1="171.84" y1="866.91" x2="159.75" y2="879"/><polyline class="cls-3" points="1085.84 866.57 1012.32 866.57 1024.74 879"/><line class="cls-3" x1="1085.84" y1="856.17" x2="1085.84" y2="876.98"/><line class="cls-3" x1="1012.65" y1="866.24" x2="1024.74" y2="854.15"/><polyline class="cls-3" points="592.89 792.23 592.89 865.75 605.32 853.33"/><line class="cls-3" x1="582.49" y1="792.23" x2="603.3" y2="792.23"/><line class="cls-3" x1="592.56" y1="865.42" x2="580.47" y2="853.33"/><polyline class="cls-3" points="592.89 939.62 592.89 866.1 580.47 878.52"/><line class="cls-3" x1="603.3" y1="939.62" x2="582.49" y2="939.62"/><line class="cls-3" x1="593.23" y1="866.44" x2="605.32" y2="878.52"/><rect class="cls-4" x="572" y="755" width="42" height="20" rx="4.07"/><rect class="cls-4" x="38" y="857" width="42" height="20" rx="4.07"/><rect class="cls-4" x="1105" y="856" width="42" height="20" rx="4.07"/><rect class="cls-4" x="571" y="957" width="42" height="20" rx="4.07"/></g></svg>