<?xml version="1.0" encoding="utf-8"?>
<!-- Generator: Adobe Illustrator 23.0.4, SVG Export Plug-In . SVG Version: 6.00 Build 0)  -->
<svg version="1.1" id="Layer_1" xmlns="http://www.w3.org/2000/svg" xmlns:xlink="http://www.w3.org/1999/xlink" x="0px" y="0px"
	 viewBox="0 0 521 352" style="enable-background:new 0 0 521 352;" xml:space="preserve">
<style type="text/css">
	.st0{fill:#6F38FC;}
	.st1{fill:#6F39F8;}
	.st2{fill:#FFFFFF;}
</style>
<g>
	<g>
		<path class="st0" d="M8,260.5c0-19.8,13.6-35.8,32.3-35.8c11.1,0,21,5.5,26.7,14.1l0.5-12.2h10.4v67.8H67.4l-0.5-12.2
			c-5.6,8.6-15.5,14.1-26.7,14.1C21.6,296.3,8,280.3,8,260.5z M66.6,260.5c0-16.3-10.5-26.2-23.4-26.2c-12.9,0-23.4,9.9-23.4,26.2
			c0,16.3,10.5,26.2,23.4,26.2C56.1,286.7,66.6,276.8,66.6,260.5z"/>
		<path class="st0" d="M93.3,260.5c0-19.8,13.6-35.8,32.3-35.8c10.5,0,19.9,4.9,25.6,12.5v-37h11.9v94.1h-10.4l-0.5-12.2
			c-5.6,8.6-15.5,14.1-26.7,14.1C107,296.3,93.3,280.3,93.3,260.5z M152,260.5c0-16.3-10.5-26.2-23.4-26.2s-23.4,9.9-23.4,26.2
			c0,16.3,10.5,26.2,23.4,26.2S152,276.8,152,260.5z"/>
		<path class="st0" d="M178.7,260.5c0-19.8,13.6-35.8,32.3-35.8c11.1,0,21,5.5,26.7,14.1l0.5-12.2h10.4v67.8h-10.4l-0.5-12.2
			c-5.6,8.6-15.5,14.1-26.7,14.1C192.3,296.3,178.7,280.3,178.7,260.5z M237.3,260.5c0-16.3-10.5-26.2-23.4-26.2
			c-12.9,0-23.4,9.9-23.4,26.2c0,16.3,10.5,26.2,23.4,26.2C226.8,286.7,237.3,276.8,237.3,260.5z"/>
		<path class="st0" d="M268,226.6h10.4l0.5,12.2c5.6-8.6,15.5-14.1,26.7-14.1c18.7,0,32.3,16,32.3,35.8c0,19.8-13.6,35.8-32.3,35.8
			c-10.5,0-19.9-4.9-25.6-12.5V325H268V226.6z M325.8,260.5c0-16.3-10.5-26.2-23.4-26.2s-23.4,9.9-23.4,26.2
			c0,16.3,10.5,26.2,23.4,26.2S325.8,276.8,325.8,260.5z"/>
		<path class="st0" d="M361.5,234.8h-15.2v-8.2h15.2v-18.5h11.9v18.5h15.4v8.2h-15.4v59.6h-11.9V234.8z"/>
		<path class="st0" d="M397.4,260c0-21.8,16.2-35.3,32.8-35.3c16.9,0,28.9,11,28.9,26.4c0,2.3-0.5,5.3-0.9,7.7h-48.9
			c-0.9,11.9,4.7,27.8,26.3,27.8c7.7,0,17.1-3.8,22.3-8.8v10.5c-6.4,5.2-16.5,8-26.4,8C411.5,296.3,397.4,281.1,397.4,260z
			 M447.6,250.5c1.4-9.1-5.8-16.3-16.9-16.3c-9.6,0-18.4,5.2-20.4,16.3H447.6z"/>
		<path class="st0" d="M475.6,226.6h10.4l0.8,13c4.4-8.3,14.9-14.9,26.3-14.9v12.9c-12.9-2.3-25.6,5-25.6,16.5v40.3h-11.9V226.6z"/>
	</g>
	<circle class="st1" cx="260.5" cy="105.5" r="78.5"/>
	<path class="st2" d="M306.1,114.5c0,2-0.3,4.1-0.9,6.1l0,0.1l-0.5,1.5l0,0.1v0c-1.1,2.5-2.4,4.9-3.9,7.1l-0.1,0.1
		c-8.2,12.2-19.4,15.2-25.5,15.9l0,0c-1.2,0.1-2.2,0.2-3,0.3h-0.1l-0.1,0h-0.6l-0.5,0h-0.1l-0.3,0l-0.2,0h-0.1
		c-0.9-0.1-1.7-0.3-2.5-0.6c-0.7-0.3-1.4-0.6-2.1-1.1h0c-0.7-0.6-1.4-1.3-1.9-2c-1.2-2.1-2.1-4.3-2.5-6.7c-0.2-0.9-0.3-1.8-0.4-2.8
		c0-0.1,0-0.1,0-0.2l0,0v-0.1l0,0l0,0c-0.3,0.5-0.6,1-0.9,1.5c-0.2,0.4-0.5,0.8-0.8,1.2l0,0c-0.3,0.4-0.6,0.8-0.9,1.3l0,0
		c-0.2,0.2-0.3,0.4-0.5,0.6c-0.5,0.6-1,1.2-1.6,1.8c-0.2,0.2-0.4,0.4-0.6,0.6s-0.4,0.4-0.6,0.6c-0.4,0.4-0.8,0.7-1.2,1.1
		c-0.4,0.4-0.9,0.7-1.3,1c-3.5,2.7-7.9,4.1-12.3,4h-0.5c-7.8-0.1-13.9-1.6-18.1-4.6c-4.4-3.1-6.5-7.6-6.5-13.7
		c0-1.6,0.1-3.2,0.5-4.8l0,0c0.1-0.3,0.1-0.7,0.2-1c6-16.5,7.7-33.7,8.1-44.7l0,0l0.2-1.1c0.3-1.4,1.1-2.5,2.3-3.2
		c3-1.6,6.9-2.4,11.7-2.4c4.7,0,7.4,3.1,8,9.2c0.5,5,0.3,9.5-0.7,13.5s-2.3,8.9-3.9,14.9c-1.6,6-2.5,11.3-2.5,15.9
		c0,3.5,2,5.3,6.1,5.5c0.3,0,0.5,0,0.8,0c5,0,9.4-4.4,13.1-13.2c2.9-6.8,4.8-14.3,5.8-22.6c0-0.1,0-0.2,0-0.3l0,0
		c-0.1-0.8-0.2-1.7-0.2-2.8c-0.1-1.3-0.1-2.5-0.2-3.8c0-1.2-0.1-2.5-0.1-3.7v-2.8c0-6.9,5.3-10.3,16-10.3c2.7,0,4.3,0.9,5,2.6
		c0.7,1.7,1,4.4,1,8c0,5-1.1,12.8-3.4,23.4c-0.9,4.1-1.6,7.7-2.1,10.8c0,0,0,0,0,0c-0.1,0.4-0.1,0.9-0.2,1.3v0
		c-0.7,4.1-1,7.2-0.9,9.2c0,1.7,0.6,2.6,1.7,2.6c1.5,0,3.4-1,5.7-2.9c0.1-0.1,0.2-0.2,0.3-0.3l0.4-0.3c2-1.8,4.1-3.7,6.1-5.8
		c2.2-2.3,4.3-4.5,6.2-6.4c1.9-1.9,3.2-2.9,3.9-2.9C305.4,109.3,306.1,111.1,306.1,114.5z"/>
</g>
</svg>
