<?xml version="1.0" encoding="utf-8"?>
<!-- Generator: Adobe Illustrator 23.1.1, SVG Export Plug-In . SVG Version: 6.00 Build 0)  -->
<svg version="1.1" id="Livello_1" xmlns="http://www.w3.org/2000/svg" xmlns:xlink="http://www.w3.org/1999/xlink" x="0px" y="0px"
	 viewBox="0 0 2045.4 500" style="enable-background:new 0 0 2045.4 500;" xml:space="preserve">
<style type="text/css">
	.st0{fill:#FFFFFF;}
	.st1{fill:#333333;}
	.st2{fill:#3C3C3B;}
	.st3{clip-path:url(#SVGID_3_);}
	.st4{fill-rule:evenodd;clip-rule:evenodd;fill:#2D3134;}
	.st5{opacity:0.6;}
	.st6{fill-rule:evenodd;clip-rule:evenodd;fill:#2E3134;}
</style>
<g>
	<title>Tavola disegno 10</title>
	<path class="st0" d="M248.9,389.4l-2.2-0.1h2L248.9,389.4z"/>
	<path class="st1" d="M324.1,236.9c0-14.6-14.2-30.1-38.8-30.1c-27.6,0-57.9,20.3-62.6,60.7c-4.7,40.8,20.7,58.9,46.3,58.9
		s39-10,52.7-23.3c-11.8-14.8-27-8-29.9-6.4c-3.2,1.6-7.4,3.8-15.8,3.8c-9.9,0-20-4.4-20-22.9C319.2,271.4,324.1,251.5,324.1,236.9z
		 M292.7,239.3c-0.4,4.5-2.2,12.3-34.3,16.6c6.8-24,19.6-25.8,25.6-25.8C289.6,230.1,293.1,234.5,292.7,239.3z M185.5,243.2
		c0,0-13.6,42.7-14.7,46.3c-0.4-3.6-10.4-80.3-10.4-80.3c-23.2,0-35.6,16.5-42.1,34c0,0-16.5,42.8-17.9,46.5c-0.1-3.3-2.5-46-2.5-46
		c-1.4-21.4-21-34.4-36.8-34.4l19.1,116.2c24.3-0.1,37.4-16.5,44.2-34c0,0,14.6-37.8,15.2-39.5c0.1,1.6,10.5,73.5,10.5,73.5
		c24.4,0,37.5-15.4,44.5-32.2l34.2-83.9C204.8,209.3,192.1,225.7,185.5,243.2z M413.6,206.6c-15,0-26.5,8.2-36.2,20.2v-0.1l8.7-69.8
		c-20,0-36.2,17.3-39.3,43.1l-15.1,124.7c11.5,0,23.7-3.3,30.2-11.8c5.8,7.6,14.6,13.6,27.6,13.6c33.7,0,56.7-39.1,56.7-75.8
		C446,217.1,429.8,206.6,413.6,206.6z M410.4,266.5c-3.5,20.5-14.9,34.4-25.9,34.4c-11.1,0-15.8-4.9-15.8-4.9
		c2.1-17.9,3.4-28.9,7.5-38.4c4-9.5,13.6-24.6,23.6-24.6C409.5,233,414,246,410.4,266.5z M530.2,209.3h-23.5l0.1-1.2
		c1.6-15.3,5.2-23.4,17.2-24.7c8.2-0.8,11.8-5,12.7-9.7c0.7-3.6,2.9-16.2,2.9-16.2c-47.2-0.3-62,20.1-65.8,51.1l-0.1,0.7h-0.5
		c-7.7,0-16.1,8.7-17.5,19.6l-0.5,4H471l-13.2,109l-4,19.5c0.5,0,1.1,0.1,1.6,0.1c22.1-0.8,36.2-18.2,39.3-43.5l10.3-85.1h7.4
		c7.3,0,15.7-7.3,17.2-19.3L530.2,209.3z M652.4,207.3c-27.1,0-52.7,20-60.6,51.3c-7.9,31.3,4,68.4,43.9,68.4
		c39.8,0,62.8-38.6,62.8-70.7C698.5,224.3,676.9,207.3,652.4,207.3z M663.4,265.5c-1.4,14.2-7.7,35.8-24.8,35.8
		c-17.2,0-14.8-25.2-13.1-37.2c1.8-12.8,9-31,24.4-31C663.7,233.1,665,249.5,663.4,265.5z M832.4,243.2c0,0-13.6,42.7-14.7,46.3
		c-0.4-3.6-10.4-80.3-10.4-80.3c-23.2,0-35.6,16.5-42.1,34c0,0-16.5,42.8-17.9,46.5c-0.1-3.3-2.5-46-2.5-46
		c-1.4-21.4-21-34.4-36.8-34.4l19,116.2c24.3-0.1,37.4-16.5,44.2-34c0,0,14.6-37.8,15.1-39.5c0.2,1.6,10.5,73.5,10.5,73.5
		c24.4,0,37.5-15.4,44.5-32.2l34.2-83.9C851.6,209.3,838.9,225.7,832.4,243.2z M552.4,157.5l-19.8,159.3l0,0l-4,19.6
		c0.5,0,1.1,0.1,1.6,0.1l0,0c21.3-0.3,36.4-18.9,39.2-42.4l11.4-91.4C584.3,174.8,567.6,157.5,552.4,157.5z"/>
	<path id="Shape-2" class="st0" d="M1096.1,224.7l-7.5,7.5l29.8,29.8H925.7v10.6h192.7l-29.8,29.8l7.5,7.5l42.6-42.6L1096.1,224.7z"
		/>
	<g>
		<g>
			<polygon id="SVGID_1_" class="st2" points="1096.1,224.7 1088.6,232.2 1118.4,262 925.7,262 925.7,272.6 1118.4,272.6 
				1088.6,302.5 1096.1,309.9 1138.7,267.3 			"/>
		</g>
		<g>
			<g>
				<defs>
					<polygon id="SVGID_2_" points="1096.1,224.7 1088.6,232.2 1118.4,262 925.7,262 925.7,272.6 1118.4,272.6 1088.6,302.5 
						1096.1,309.9 1138.7,267.3 					"/>
				</defs>
				<clipPath id="SVGID_3_">
					<use xlink:href="#SVGID_2_"  style="overflow:visible;"/>
				</clipPath>
				<g id="Icon-2" class="st3">
					<g id="_Color" transform="translate(-10 -22)">
						<rect id="Color" x="882.5" y="129.6" class="st2" width="319.4" height="319.4"/>
					</g>
				</g>
			</g>
		</g>
	</g>
	<g>
		<path class="st4" d="M1720.3,199.7c-42.3,0-64.1,30.2-64.1,67.5s21.3,67.5,64.1,67.5c42.8,0,64.1-30.2,64.1-67.5
			C1784.4,229.9,1762.6,199.7,1720.3,199.7L1720.3,199.7z M1752.3,267.3c0,24-8,43.4-32,43.4c-24,0-32-19.4-32-43.4v-0.1
			c0-24,8-43.4,32-43.4c24,0,32,19.4,32,43.4V267.3L1752.3,267.3z M1531.1,149.3c0-1.7,1.4-3.3,3.1-3.6c0,0,21.2-3.1,23.1-3.3
			c2.1-0.3,5,1.2,5,4.3V216c5.1-4.9,10.6-8.8,16.7-11.8c6.1-3,13.2-4.5,21.4-4.5c7.1,0,13.3,1.2,18.8,3.6
			c5.5,2.4,10.1,5.8,13.7,10.2c3.7,4.4,6.4,9.6,8.3,15.7c1.9,6.1,2.8,12.8,2.8,20.1v80.3c0,1.7-1.4,3.1-3.1,3.1h-25
			c-1.7,0-3.1-1.4-3.1-3.1v-80.4c0-8-1.8-14.2-5.5-18.6c-3.7-4.4-9.2-6.6-16.5-6.6c-5.4,0-10.4,1.2-15.2,3.7
			c-4.7,2.5-9.2,5.8-13.4,10.1v91.7c0,1.7-1.4,3.1-3.1,3.1h-24.9c-1.7,0-3.1-1.4-3.1-3.1L1531.1,149.3L1531.1,149.3z M1912.9,298.5
			v-68.3h-21.1c-1.7,0-2.7-1.4-2.3-3l4.7-16.4c0.4-1.4,1.5-2.9,3.6-3.2l15-2.1l5.5-36.8c0.3-1.7,1.8-3.3,3.6-3.5
			c0,0,14.4-2,17.2-2.5c2.6-0.4,5,1.5,5,4.4v38.4h27.5c1.7,0,3.1,1.4,3.1,3.1V227c0,1.7-1.4,3.1-3.1,3.1H1944v67.4
			c0,9.4,5.7,13,11.1,13c3.3,0,7.9-1.8,11.3-3.4c2.1-1,5.3-0.3,6.2,2.7l3.8,13.5c0.5,1.7-0.4,3.7-1.9,4.5c0,0-11.4,6.8-26.7,6.8
			C1926.3,334.8,1912.8,322.1,1912.9,298.5L1912.9,298.5z M1843.1,223.8c-11.1,0-19.8,3.9-19.8,13.2c0,11.6,18.8,15,31.7,19.8
			c8.6,3.2,31.7,9.4,31.7,34.4c0,30.5-25,43.5-51.7,43.5s-39.7-8.6-39.7-8.6c-1.5-0.8-2.3-2.9-1.9-4.5c0,0,3.3-11.8,4.1-14.7
			c0.8-2.6,3.8-3.6,5.7-2.8c6.9,2.7,19.3,6.4,33.3,6.4c14.2,0,21.1-4.4,21.1-13.7c0-12.4-19.2-16.2-31.9-20.3
			c-8.7-2.8-31.9-9.3-31.9-36.9c0-27.2,23.6-39.9,48.8-39.9c21.3,0,36.8,7.3,36.8,7.3c1.6,0.7,2.5,2.6,2,4.2l-4.2,14.6
			c-0.8,2.7-3,4-5.7,3.1C1865.3,227,1853.9,223.8,1843.1,223.8L1843.1,223.8z M1514,199.9c-10.5,1.2-18,6.2-22.8,10.8
			c-9.5-7.5-22.7-11.1-37.5-11.1c-29.7,0-52.8,14.5-52.8,46c0,18.1,7.6,30.6,19.7,38c-9,4.3-15,13.4-15,22.4
			c0,15,11.7,19.7,11.7,19.7s-20.5,10.1-20.5,30.2c0,25.8,23.5,36.2,52.2,36.2c41.4,0,69.8-17.3,69.8-49c0-19.5-14.8-30.3-47-31.6
			c-19.1-0.8-31.5-1.5-34.5-2.5c-4.1-1.4-6-4.6-6-8.3c0-4,3.3-7.8,8.4-10.4c4.5,0.8,9.2,1.2,14.1,1.2c29.7,0,52.8-14.4,52.8-46
			c0-7.7-1.4-14.3-3.8-20c4.4-2.4,13-3.5,13-3.5c1.7-0.3,3.1-1.9,3.1-3.6v-14.3C1518.9,201.3,1516.4,199.7,1514,199.9L1514,199.9z
			 M1437.1,333.1c0,0,15.6,0.6,31.1,1.3c17.5,0.8,22.9,4.6,22.9,13.8c0,11.2-15.2,22.1-36.4,22.1c-20.2,0-30.2-7.1-30.2-18.9
			C1424.6,344.6,1428.1,337,1437.1,333.1L1437.1,333.1z M1453.8,269.7c-14,0-25-7.6-25-24c0-16.5,11-24,25-24c14,0,25,7.5,25,24
			S1467.9,269.6,1453.8,269.7L1453.8,269.7z"/>
		<g transform="translate(0 36)" class="st5">
			<path class="st6" d="M1212.9,269.5h40.1c3.5,0,6.3,2.8,6.3,6.3v14.1c0,3.5-2.8,6.3-6.3,6.3h-40.1c-3.5,0-6.3-2.8-6.3-6.3v-14.1
				C1206.6,272.3,1209.4,269.5,1212.9,269.5z"/>
			<path class="st6" d="M1291.8,269.5h40.1c3.5,0,6.3,2.8,6.3,6.3v14.1c0,3.5-2.8,6.3-6.3,6.3h-40.1c-3.5,0-6.3-2.8-6.3-6.3v-14.1
				C1285.6,272.3,1288.4,269.5,1291.8,269.5z"/>
			<path class="st6" d="M1212.8,216.3h119.1c3.5,0,6.3,2.8,6.3,6.3v14.1c0,3.5-2.8,6.3-6.3,6.3h-119.1c-3.5,0-6.3-2.8-6.3-6.3v-14.1
				C1206.6,219.1,1209.4,216.3,1212.8,216.3z"/>
			<path class="st6" d="M1212.9,163.1h66.5c3.5,0,6.3,2.8,6.3,6.3v14.1c0,3.5-2.8,6.3-6.3,6.3h-66.5c-3.5,0-6.3-2.8-6.3-6.3v-14.1
				C1206.6,165.9,1209.4,163.1,1212.9,163.1z"/>
			<path class="st6" d="M1318.2,163.1h13.8c3.5,0,6.3,2.8,6.3,6.3v14.1c0,3.5-2.8,6.3-6.3,6.3h-13.8c-3.5,0-6.3-2.8-6.3-6.3v-14.1
				C1311.9,165.9,1314.7,163.1,1318.2,163.1z"/>
		</g>
	</g>
</g>
</svg>
