<?xml version="1.0" encoding="utf-8"?>
<!-- Generator: Adobe Illustrator 23.0.4, SVG Export Plug-In . SVG Version: 6.00 Build 0)  -->
<svg version="1.1" id="Livello_1" xmlns="http://www.w3.org/2000/svg" xmlns:xlink="http://www.w3.org/1999/xlink" x="0px" y="0px"
	 viewBox="0 0 2265.2 500" style="enable-background:new 0 0 2265.2 500;" xml:space="preserve">
<style type="text/css">
	.st0{fill:#FFFFFF;}
	.st1{fill:#333333;}
	.st2{fill:#3C3C3B;}
	.st3{clip-path:url(#SVGID_3_);}
	.st4{fill:#0087BE;}
</style>
<g>
	<title>Tavola disegno 10</title>
	<path class="st0" d="M248.9,389.4l-2.2-0.1h2L248.9,389.4z"/>
	<path class="st1" d="M324.1,236.9c0-14.6-14.2-30.1-38.8-30.1c-27.6,0-57.9,20.3-62.6,60.7c-4.7,40.8,20.7,58.9,46.3,58.9
		c25.6,0,39-10,52.7-23.3c-11.8-14.8-27-8-29.9-6.4c-3.2,1.6-7.4,3.8-15.8,3.8c-9.9,0-20-4.4-20-22.9
		C319.2,271.4,324.1,251.5,324.1,236.9z M292.7,239.3c-0.4,4.5-2.2,12.3-34.3,16.6c6.8-24,19.6-25.8,25.6-25.8
		C289.6,230.1,293.1,234.5,292.7,239.3z M185.5,243.2c0,0-13.6,42.7-14.7,46.3c-0.4-3.6-10.4-80.3-10.4-80.3
		c-23.2,0-35.6,16.5-42.1,34c0,0-16.5,42.8-17.9,46.5c-0.1-3.3-2.5-46-2.5-46c-1.4-21.4-21-34.4-36.8-34.4l19.1,116.2
		c24.3-0.1,37.4-16.5,44.2-34c0,0,14.6-37.8,15.2-39.5c0.1,1.6,10.5,73.5,10.5,73.5c24.4,0,37.5-15.4,44.5-32.2l34.2-83.9
		C204.8,209.3,192.1,225.7,185.5,243.2z M413.6,206.6c-15,0-26.5,8.2-36.2,20.2v-0.1l8.7-69.8c-20,0-36.2,17.3-39.3,43.1
		l-15.1,124.7c11.5,0,23.7-3.3,30.2-11.8c5.8,7.6,14.6,13.6,27.6,13.6c33.7,0,56.7-39.1,56.7-75.8
		C446,217.1,429.8,206.6,413.6,206.6z M410.4,266.5c-3.5,20.5-14.9,34.4-25.9,34.4c-11.1,0-15.8-4.9-15.8-4.9
		c2.1-17.9,3.4-28.9,7.5-38.4c4-9.5,13.6-24.6,23.6-24.6C409.5,233,414,246,410.4,266.5z M530.2,209.3h-23.5l0.1-1.2
		c1.6-15.3,5.2-23.4,17.2-24.7c8.2-0.8,11.8-5,12.7-9.7c0.7-3.6,2.9-16.2,2.9-16.2c-47.2-0.3-62,20.1-65.8,51.1l-0.1,0.7h-0.5
		c-7.7,0-16.1,8.7-17.5,19.6l-0.5,4H471l-13.2,109l-4,19.5c0.5,0,1.1,0.1,1.6,0.1c22.1-0.8,36.2-18.2,39.3-43.5l10.3-85.1h7.4
		c7.3,0,15.7-7.3,17.2-19.3L530.2,209.3z M652.4,207.3c-27.1,0-52.7,20-60.6,51.3c-7.9,31.3,4,68.4,43.9,68.4
		c39.8,0,62.8-38.6,62.8-70.7C698.5,224.3,676.9,207.3,652.4,207.3z M663.4,265.5c-1.4,14.2-7.7,35.8-24.8,35.8
		c-17.2,0-14.8-25.2-13.1-37.2c1.8-12.8,9-31,24.4-31C663.7,233.1,665,249.5,663.4,265.5z M832.4,243.2c0,0-13.6,42.7-14.7,46.3
		c-0.4-3.6-10.4-80.3-10.4-80.3c-23.2,0-35.6,16.5-42.1,34c0,0-16.5,42.8-17.9,46.5c-0.1-3.3-2.5-46-2.5-46
		c-1.4-21.4-21-34.4-36.8-34.4l19,116.2c24.3-0.1,37.4-16.5,44.2-34c0,0,14.6-37.8,15.1-39.5c0.2,1.6,10.5,73.5,10.5,73.5
		c24.4,0,37.5-15.4,44.5-32.2l34.2-83.9C851.6,209.3,838.9,225.7,832.4,243.2z M552.4,157.5l-19.8,159.3l0,0l-4,19.6
		c0.5,0,1.1,0.1,1.6,0.1l0,0c21.3-0.3,36.4-18.9,39.2-42.4l11.4-91.4C584.3,174.8,567.6,157.5,552.4,157.5z"/>
	<path id="Shape-2" class="st0" d="M1096.1,224.7l-7.5,7.5l29.8,29.8H925.7v10.6h192.7l-29.8,29.8l7.5,7.5l42.6-42.6L1096.1,224.7z"
		/>
	<g>
		<g>
			<polygon id="SVGID_1_" class="st2" points="1096.1,224.7 1088.6,232.2 1118.4,262 925.7,262 925.7,272.6 1118.4,272.6 
				1088.6,302.5 1096.1,309.9 1138.7,267.3 			"/>
		</g>
		<g>
			<defs>
				<polygon id="SVGID_2_" points="1096.1,224.7 1088.6,232.2 1118.4,262 925.7,262 925.7,272.6 1118.4,272.6 1088.6,302.5 
					1096.1,309.9 1138.7,267.3 				"/>
			</defs>
			<clipPath id="SVGID_3_">
				<use xlink:href="#SVGID_2_"  style="overflow:visible;"/>
			</clipPath>
			<g id="Icon-2" class="st3">
				<g id="_Color" transform="translate(-10 -22)">
					<rect id="Color" x="882.5" y="129.6" class="st2" width="319.4" height="319.4"/>
				</g>
			</g>
		</g>
	</g>
	<g>
		<path class="st1" d="M1757.6,232.9h-41.3v4.4c12.9,0,15,2.8,15,19.2v29.4c0,16.4-2.1,19.3-15,19.3c-9.9-1.4-16.6-6.6-25.8-16.7
			l-10.6-11.5c14.3-2.6,22-11.5,22-21.8c0-12.7-10.8-22.5-31.2-22.5h-40.6v4.4c12.9,0,15,2.8,15,19.2v29.4c0,16.4-2.1,19.3-15,19.3
			v4.4h46V305c-12.9,0-15-3-15-19.3v-8.4h4l25.6,32.1h67.1c32.9,0,47.2-17.4,47.2-38.5C1805,250.2,1790.5,232.9,1757.6,232.9z
			 M1660.9,270.5v-30.8h9.4c10.5,0,15,7.1,15,15.5c0,8-4.7,15.2-15,15.2h-9.4V270.5z M1758.3,302.6h-1.6c-8.4,0-9.4-2.1-9.4-12.7
			v-50.2c0,0,10.1,0,11.1,0c24,0,28.4,17.4,28.4,31.2C1786.7,285,1782.1,302.6,1758.3,302.6z"/>
		<path class="st1" d="M1501.3,279.1l15.9-47c4.7-13.6,2.6-17.4-12.2-17.4v-4.7h43.4v4.7c-14.5,0-18.1,3.5-23.9,20.4l-26.3,78.9h-3
			l-23.5-72.3l-24,72.3h-3l-25.6-78.9c-5.6-16.7-9.2-20.4-22.6-20.4v-4.7h51.2v4.7c-13.6,0-17.2,3.3-12.4,17.4l15.5,47l23.3-69.2
			h4.4L1501.3,279.1z"/>
		<path class="st1" d="M1579.9,312.7c-25.4,0-46.2-18.8-46.2-41.6c0-22.6,20.7-41.3,46.2-41.3s46,18.8,46,41.3
			C1626.1,294.1,1605.1,312.7,1579.9,312.7z M1579.9,237.1c-21.3,0-28.6,19.2-28.6,34.1c0,15.2,7.3,34.1,28.6,34.1
			c21.4,0,28.9-19,28.9-34.1C1608.6,256.1,1601.3,237.1,1579.9,237.1z"/>
		<path class="st1" d="M1861.9,305v4.7h-53V305c15.5,0,18.3-4,18.3-27v-36.9c0-23.2-2.8-26.8-18.3-26.8v-4.7h47.7
			c23.9,0,36.9,12.2,36.9,28.6c0,15.9-13.1,28.4-36.9,28.4h-13.1v11.3C1843.6,301.2,1846.4,305,1861.9,305z M1856.9,218.1h-13.2
			v40.2h13.1c12.9,0,19-9.1,19-19.9C1875.7,227.3,1869.8,218.1,1856.9,218.1z"/>
		<path class="st1" d="M2052.3,288l-1.2,4.2c-2.1,7.7-4.7,10.5-21.1,10.5h-3.3c-12,0-14.1-2.8-14.1-19.2v-10.6
			c18.1,0,19.3,1.6,19.3,13.6h4.4v-34.3h-4.4c0,12-1.4,13.6-19.3,13.6v-25.8h12.7c16.4,0,19,2.8,21.1,10.5l1.2,4.4h3.7l-1.6-21.8
			H1982v4.4c12.9,0,15,2.8,15,19.2v29.4c0,15-1.7,18.8-12,19.3c-9.8-1.6-16.4-6.8-25.4-16.7l-10.6-11.5c14.3-2.6,22-11.5,22-21.8
			c0-12.7-10.8-22.5-31.2-22.5H1899v4.4c12.9,0,15,2.8,15,19.2v29.4c0,16.4-2.1,19.3-15,19.3v4.4h46V305c-12.9,0-15-3-15-19.3v-8.4
			h4l25.6,32.1h94.8l1.4-21.8L2052.3,288L2052.3,288z M1930,270.5v-30.8h9.4c10.5,0,15,7.1,15,15.5c0,8-4.7,15.2-15,15.2h-9.4V270.5
			z"/>
		<path class="st1" d="M2099,312.7c-9.2,0-17.2-4.9-20.7-7.8c-1.2,1.2-3.3,4.7-3.7,7.8h-4.4v-31.9h4.7c1.9,15.2,12.4,24.2,26.1,24.2
			c7.3,0,13.4-4.2,13.4-11.1c0-6.1-5.4-10.6-14.8-15l-13.1-6.3c-9.2-4.4-16.2-12-16.2-22.1c0-11.1,10.5-20.6,24.7-20.6
			c7.7,0,14.1,2.8,18.1,6.1c1.2-1,2.3-3.5,3-6.3h4.4V257h-4.9c-1.6-10.8-7.7-19.9-19.9-19.9c-6.4,0-12.4,3.7-12.4,9.4
			c0,6.1,4.9,9.2,15.9,14.3l12.7,6.3c11.1,5.4,15.5,13.8,15.5,20.7C2127.3,302.6,2114.5,312.7,2099,312.7z"/>
		<path class="st1" d="M2168.9,312.7c-9.2,0-17.2-4.9-20.7-7.8c-1.2,1.2-3.3,4.7-3.7,7.8h-4.4v-31.9h4.7
			c1.9,15.2,12.4,24.2,26.1,24.2c7.3,0,13.4-4.2,13.4-11.1c0-6.1-5.4-10.6-14.8-15l-13.1-6.3c-9.2-4.4-16.2-12-16.2-22.1
			c0-11.1,10.5-20.6,24.7-20.6c7.7,0,14.1,2.8,18.1,6.1c1.2-1,2.3-3.5,3-6.3h4.4V257h-4.9c-1.6-10.8-7.7-19.9-19.9-19.9
			c-6.4,0-12.4,3.7-12.4,9.4c0,6.1,4.9,9.2,15.9,14.3l12.7,6.3c11.1,5.4,15.5,13.8,15.5,20.7
			C2197.1,302.6,2184.4,312.7,2168.9,312.7z"/>
		<path class="st4" d="M1282.3,162c13.2,0,26,2.6,38,7.7c5.7,2.4,11.3,5.6,16.6,9.1s10.1,7.5,14.5,11.8s8.4,9.2,11.8,14.5
			c3.5,5.2,6.6,10.8,9.1,16.6c5.1,12,7.7,24.7,7.7,38c0,13.2-2.6,26-7.7,38c-2.4,5.7-5.6,11.3-9.1,16.6c-3.5,5.2-7.5,10.1-11.8,14.5
			c-4.4,4.4-9.2,8.4-14.5,11.8c-5.2,3.5-10.8,6.6-16.6,9.1c-12,5.1-24.7,7.7-38,7.7s-26-2.6-38-7.7c-5.7-2.4-11.3-5.6-16.6-9.1
			c-5.2-3.5-10.1-7.5-14.5-11.8c-4.4-4.4-8.4-9.2-11.8-14.5c-3.5-5.2-6.6-10.8-9.1-16.6c-5.1-12-7.7-24.7-7.7-38
			c0-13.2,2.6-26,7.7-38c2.4-5.7,5.6-11.3,9.1-16.6c3.5-5.2,7.5-10.1,11.8-14.5c4.4-4.4,9.2-8.4,14.5-11.8
			c5.2-3.5,10.8-6.6,16.6-9.1C1256.4,164.6,1269.1,162,1282.3,162 M1282.3,155.7c-57.3,0-103.8,46.5-103.8,103.8
			s46.5,103.8,103.8,103.8s103.8-46.5,103.8-103.8S1339.6,155.7,1282.3,155.7z"/>
		<path class="st4" d="M1195.7,259.7c0,34.1,19.9,63.9,48.8,77.9l-41.3-113.2C1198.5,235.2,1195.7,247.2,1195.7,259.7z
			 M1340.7,255.2c0-10.6-3.8-18.1-7.1-23.9c-4.4-7.1-8.5-13.1-8.5-20.4c0-8,6.1-15.3,14.5-15.3c0.3,0,0.9,0.2,1.2,0.2
			c-15.3-14.1-35.9-22.8-58.5-22.8c-30.1,0-56.8,15.5-72.3,39c2.1,0.2,4,0.2,5.6,0.2c9.1,0,23.2-1.2,23.2-1.2
			c4.7-0.3,5.2,6.6,0.5,7.1c0,0-4.7,0.5-9.9,0.9l31.5,93.7l19-56.8l-13.4-36.9c-4.7-0.3-9.1-0.9-9.1-0.9c-4.7-0.3-4.2-7.5,0.5-7.1
			c0,0,14.3,1.2,22.8,1.2c9.1,0,23.2-1.2,23.2-1.2c4.7-0.3,5.2,6.6,0.5,7.1c0,0-4.7,0.5-9.9,0.9l31.2,93l8.9-28.2
			C1338.4,271.4,1340.7,262.7,1340.7,255.2z M1283.9,267.2l-26,75.4c7.8,2.3,15.9,3.5,24.4,3.5c10.1,0,19.9-1.7,28.7-4.9
			c-0.3-0.3-0.5-0.9-0.7-1.2L1283.9,267.2z M1358.3,218.1c0.3,2.8,0.7,5.7,0.7,8.9c0,8.7-1.7,18.6-6.6,31l-26.5,76.5
			c25.8-15,43-42.9,43-74.9C1368.9,244.6,1365.1,230.5,1358.3,218.1z"/>
	</g>
</g>
</svg>
